<svg xmlns="http://www.w3.org/2000/svg" xmlns:xlink="http://www.w3.org/1999/xlink" xmlns:svgjs="http://svgjs.com/svgjs" id="SvgjsSvg1001" version="1.1" viewBox="48.11 25.95 174.96 93.56"><defs id="SvgjsDefs1002"/><g id="SvgjsG1008" transform="matrix(1,0,0,1,0,0)"><svg xmlns="http://www.w3.org/2000/svg" width="288" height="288" viewBox="0 0 261.761 304.8"><path fill="#52cc99" d="M 106.2453 126.394 C 103.9459 126.1257 102.4807 125.0927 102.4497 123.718 C 102.4356 123.0925 102.652 122.7103 103.5591 121.7584 C 104.3827 120.894 105.4763 120.0549 106.7911 119.2782 C 108.5316 118.2502 109.6962 117.3371 111.5637 115.5365 C 113.1466 114.0103 113.8047 113.4899 114.1485 113.4928 C 115.2361 113.5017 118.7628 116.2427 119.3598 117.543 C 119.7156 118.3179 119.6787 119.1009 119.2434 120.0165 C 117.7028 123.2565 113.2234 125.966 108.6974 126.3954 C 107.5027 126.5087 107.2276 126.5086 106.2453 126.394 Z" class="color401414 svgShape"/><path fill="#52cc99" d="M 172.2957 118.0683 C 172.3902 116.3931 173.2748 113.275 174.1762 111.4393 C 174.9058 109.9536 176.7399 107.6406 178.1668 106.4065 C 178.8969 105.7751 179.9708 105.1815 180.641 105.0389 C 180.8837 104.9873 181.1085 105.0357 181.5368 105.2319 C 182.5597 105.7004 183.1658 106.3159 183.1665 106.8866 C 183.167 107.2765 182.6557 108.2566 181.9731 109.1745 C 180.3804 111.3161 179.4883 113.1937 178.8648 115.7161 C 178.3924 117.6273 177.9729 118.1911 176.7658 118.5363 C 176.2704 118.678 173.0717 119.0939 172.4773 119.0939 L 172.2378 119.0939 L 172.2957 118.0683 Z" class="color350C08 svgShape"/><path fill="#52cc99" d="M 103.7142 118.5019 C 102.0704 118.0879 101.7945 116.9926 102.4894 113.6407 L 102.8214 112.0397 L 104.2678 112.0705 C 106.6491 112.1212 108.0379 112.3691 109.177 112.9466 C 109.677 113.2001 110.0644 113.6107 110.0644 113.8871 C 110.0644 114.377 108.9137 115.5811 106.9143 117.1835 C 105.5574 118.2709 104.5101 118.7023 103.7142 118.5019 Z" class="color401414 svgShape"/><path fill="#52cc99" d="M 180.1918 116.7806 C 179.891 116.6937 179.8669 116.6554 179.8681 116.2644 C 179.8707 115.43 180.2336 114.0352 180.6629 113.2096 C 181.4135 111.7661 183.1909 110.1034 184.1583 109.9399 C 184.3707 109.904 184.7253 109.9233 184.9464 109.9829 C 185.4219 110.111 186.2867 110.8536 186.4667 111.2883 C 186.7516 111.9765 186.3732 113.0369 185.2164 114.7923 C 183.9726 116.6797 183.6228 116.8915 181.7669 116.8814 C 181.0794 116.8776 180.3706 116.8323 180.1918 116.7806 Z" class="color350C08 svgShape"/><path fill="#52cc99" d="M 120.9912 116.6383 C 119.9029 116.345 119.0543 115.7769 118.215 114.78 C 117.626 114.0802 116.814 113.4563 115.7369 112.8756 C 115.3091 112.6451 114.7952 112.3147 114.5949 112.1414 C 114.2845 111.8729 114.2329 111.7691 114.2453 111.4382 C 114.2653 110.9069 114.7172 110.208 115.29 109.8225 C 115.9353 109.3884 116.6323 109.3428 121.2927 109.43 C 125.5812 109.5102 125.6539 109.5215 126.724 110.2735 C 127.7693 111.008 128.465 111.9391 128.465 112.6035 C 128.465 113.609 126.9519 115.1877 125.0803 116.1348 C 123.887 116.7387 122.1553 116.952 120.9912 116.6383 Z" class="color401414 svgShape"/><path fill="#52cc99" d="M186.6951 116.497C186.2426 116.3013 186.2673 115.441 186.7537 114.4544 187.1275 113.6962 188.0249 112.5942 188.5157 112.2907 188.8496 112.0843 188.9704 112.0682 189.85 112.1136 190.382 112.141 190.9379 112.2202 191.0855 112.2896 191.608 112.5355 191.7076 113.397 191.3115 114.245 191.0249 114.8587 190.0138 115.8096 189.2484 116.1854 188.6948 116.4572 188.4363 116.5206 187.7483 116.5534 187.2911 116.5752 186.8172 116.5498 186.6951 116.497zM193.8619 114.1088C192.9343 113.5197 191.8673 111.9841 191.8673 111.2383 191.8673 110.8344 192.3198 110.1965 192.8327 109.8775 193.1657 109.6704 193.3329 109.6397 194.0785 109.6493 195.5166 109.6678 196.894 110.1986 197.1899 110.8484 197.4983 111.5255 195.3461 114.3911 194.5292 114.3911 194.4067 114.3911 194.1064 114.264 193.8619 114.1088z" class="color350C08 svgShape"/><path fill="#52cc99" d="M 134.2652 111.4089 C 134.2652 111.281 134.7783 110.5122 135.5007 109.5577 C 136.5158 108.2165 136.7621 107.6479 137.2109 105.6101 C 137.9649 102.1864 139.7449 98.88217 141.0846 98.4194 C 141.4793 98.28305 141.9203 98.41013 142.0784 98.70581 C 142.2706 99.06506 142.1213 100.0739 141.7198 101.1304 C 140.8406 103.4433 141.3454 103.4899 142.7465 101.2251 C 143.8876 99.38063 144.7097 97.48434 146.0178 93.67871 C 148.0435 87.78563 150.0217 83.31151 152.3675 79.31741 C 154.4783 75.72336 156.7669 70.35559 157.315 67.7132 C 157.8647 65.06323 156.4377 62.57527 153.3996 60.88678 C 151.44 59.79771 151.0962 59.07283 151.9867 57.90709 C 152.9928 56.58987 154.5125 56.33284 156.7427 57.10266 C 157.8382 57.4808 158.3177 57.53766 158.6096 57.32407 C 158.7604 57.21375 158.7716 57.15395 158.675 56.97339 C 158.5275 56.69771 157.7805 56.32076 155.866 55.55592 C 154.272 54.91913 153.308 54.46559 152.8288 54.12698 C 152.562 53.93851 152.5458 53.8895 152.5994 53.43652 C 152.6758 52.79074 153.1267 51.80447 153.4823 51.50507 L 153.7676 51.26485 L 153.4418 51.02402 C 153.2625 50.89156 152.868 50.64424 152.565 50.47443 C 150.4302 49.27784 150.8373 48.49657 154.0123 47.69704 C 155.853 47.23354 156.8257 47.10419 157.455 47.23924 C 158.2027 47.39968 158.8325 47.72896 159.1758 48.13889 C 159.8783 48.97761 161.1506 52.05914 161.6654 54.16827 C 162.2091 56.3961 162.2897 58.76953 161.9147 61.50949 C 161.3934 65.31796 161.2035 67.87521 161.3519 69.08932 C 161.5644 70.82703 161.9941 71.23055 164.5735 72.11456 C 166.7191 72.84991 167.3036 72.86794 174.3666 72.41666 C 179.6596 72.07848 181.8838 72.02055 189.6672 72.01819 C 199.8981 72.01508 202.6088 72.17349 203.7542 72.84146 C 204.8521 73.4818 206.5888 75.7025 207.2678 77.33441 C 208.0641 79.24835 207.9646 80.57088 207.0241 80.57088 C 206.3941 80.57088 205.9004 80.0388 205.4641 78.88971 C 205.2808 78.40677 205.1004 78.07553 205.0332 78.09843 C 204.9493 78.12706 204.9278 78.69603 204.9548 80.17984 C 204.9967 82.48999 204.9309 82.8147 204.3487 83.16986 C 203.4518 83.717 202.3836 83.10442 201.0127 81.25668 C 200.1726 80.12445 199.7911 79.97684 197.6945 79.97296 C 196.0524 79.96992 195.7737 79.87312 195.0675 79.06075 C 194.4669 78.36984 194.1317 78.16945 193.5769 78.16945 C 193.2372 78.16945 193.1116 78.23524 192.7469 78.60413 C 192.0759 79.28296 190.7931 79.8221 187.8174 80.67586 C 186.123 81.16202 184.9609 81.61751 183.2169 82.47902 C 182.3369 82.91376 181.3526 83.33667 181.0295 83.41881 C 180.7065 83.50096 179.6489 83.61452 178.6794 83.67117 C 175.2063 83.87416 174.8254 83.97205 173.0363 85.12148 C 170.9213 86.48027 170.8078 86.52332 166.0163 87.78192 C 164.9163 88.07088 163.3862 88.50299 162.6162 88.74219 C 160.0409 89.54214 158.5267 89.81433 154.3559 90.22699 C 151.4799 90.51155 150.4352 90.6895 149.7158 91.0174 C 148.5996 91.52612 148.2755 92.04539 147.3316 94.83829 C 146.545 97.16571 146.1613 98.09908 145.2051 100.01 C 143.9519 102.5147 142.5897 104.5276 141.8336 104.9921 C 141.3474 105.2909 140.8025 105.1255 139.7947 104.3735 C 139.5083 104.1597 139.2339 103.9849 139.1849 103.9849 C 139.1359 103.9849 139.0193 104.5587 138.9258 105.2601 C 138.5286 108.2404 137.374 110.2479 135.553 111.1242 C 134.8434 111.4657 134.2652 111.5935 134.2652 111.4089 Z" class="colorB99279 svgShape"/><path fill="#52cc99" d="M 129.0745 111.0349 C 128.8322 110.8963 128.2227 110.3903 127.72 109.9104 C 126.0391 108.3057 125.7704 108.2367 121.5648 108.3301 C 118.7442 108.3927 118.4883 108.3842 118.1647 108.2175 C 117.705 107.9808 117.6573 107.5471 117.9986 106.7067 C 118.9503 104.3633 122.0466 101.5524 124.458 100.8427 C 125.1431 100.6411 126.5824 100.6371 127.5121 100.8341 C 129.2386 101.2001 131.9978 103.0128 133.0825 104.4939 C 133.567 105.1554 133.9535 105.9979 133.9606 106.4076 C 133.9682 106.8535 133.5828 107.7412 133.0918 108.4086 C 132.1713 109.6597 130.2659 111.2911 129.7287 111.288 C 129.6112 111.2874 129.3168 111.1734 129.0745 111.0349 Z" class="color401414 svgShape"/><path fill="#52cc99" d="M 106.0453 110.4845 C 104.0272 110.249 103.3606 109.6636 103.4967 108.2466 C 103.6865 106.2719 105.6218 102.8995 106.7241 102.6227 C 107.2093 102.5008 107.794 102.8895 108.3537 103.7058 C 109.7119 105.6869 110.0716 106.0359 111.8379 107.0866 C 112.9945 107.7746 113.9645 108.6263 113.9645 108.9537 C 113.9645 109.2783 113.5499 109.8082 113.0626 110.1064 C 112.7345 110.3071 112.3875 110.4085 111.7671 110.4847 C 110.8067 110.6027 107.0572 110.6025 106.0453 110.4845 Z" class="color713B28 svgShape"/><path fill="#52cc99" d="M188.6795 110.3857C187.6169 109.9033 186.7671 109.0344 186.7671 108.4303 186.7671 108.0405 187.2565 107.0479 187.7044 106.5295L188.0442 106.1362 189.4307 106.1362C191.7228 106.1362 191.8788 106.2264 191.8932 107.5612 191.9068 108.8272 191.3451 109.8324 190.3452 110.3309 189.7277 110.6388 189.2701 110.6539 188.6795 110.3857zM199.7028 109.0967C198.9823 108.675 198.7675 108.3706 198.7675 107.7711 198.7675 107.1102 199.0585 106.3271 199.6159 105.4882 200.9566 103.4704 202.9149 102.9578 203.6955 104.4202 203.8797 104.7653 203.9171 104.9958 203.9169 105.7859 203.9168 106.6232 203.8848 106.7972 203.6488 107.2454 203.0958 108.296 201.7206 109.2714 200.6676 109.3601 200.3053 109.3906 200.1172 109.3392 199.7028 109.0967zM193.7498 108.2401C193.217 107.8779 193.024 107.3009 193.094 106.2793 193.2182 104.4674 194.2652 103.4678 195.8865 103.6135 196.8447 103.6996 198.1675 104.4447 198.1675 104.8983 198.1675 105.6431 196.3895 107.8692 195.4312 108.3242 194.9073 108.573 194.1864 108.5369 193.7498 108.2401z" class="color350C08 svgShape"/><path fill="#52cc99" d="M 113.5867 106.5454 C 113 106.3539 112.5191 105.9648 112.2039 105.4267 C 111.9867 105.0559 111.9495 104.896 111.9981 104.5413 C 112.0841 103.9135 112.6864 102.3422 113.4625 100.7209 C 114.2185 99.14156 114.8984 98.28146 115.3908 98.28146 C 116.2592 98.28146 119.6647 100.7393 119.6647 101.3661 C 119.6647 101.6783 119.1957 102.9459 118.8048 103.6902 C 117.7558 105.6877 115.2161 107.0773 113.5867 106.5454 Z" class="color401414 svgShape"/><path fill="#52cc99" d="M 185.2675 105.7174 C 184.6228 105.3959 183.326 104.1929 183.0583 103.6678 C 182.6948 102.9548 182.8726 102.3605 183.6902 101.556 C 185.211 100.0595 187.5312 99.37384 189.2903 99.90117 C 190.1408 100.1561 191.162 101.4272 191.0226 102.0573 C 190.8859 102.675 189.5358 103.9933 187.9326 105.0746 C 186.4521 106.0731 186.1345 106.1497 185.2675 105.7174 Z" class="color350C08 svgShape"/><path fill="#52cc99" d="M 135.1882 103.6096 C 133.862 102.7132 131.3786 100.1743 130.9117 99.2374 C 130.611 98.63387 130.6016 98.2758 130.8718 97.71725 C 131.1328 97.17792 132.1935 96.18021 132.506 96.18021 C 133.307 96.18021 136.6172 98.82303 136.9715 99.74553 C 137.4702 101.0436 137.1327 102.8891 136.2625 103.6216 C 135.868 103.9538 135.6946 103.9519 135.1882 103.6096 Z" class="color8B4A38 svgShape"/><path fill="#52cc99" d="M 109.3045 103.3595 C 108.5632 102.8598 108.4302 102.5516 108.4352 101.3455 C 108.4445 99.11296 109.4511 96.68369 110.6153 96.08427 C 111.3183 95.72227 112.3117 95.73283 113.0832 96.11049 C 114.3529 96.73204 114.2921 97.52383 112.8176 99.56783 C 112.0582 100.6205 111.4489 101.788 111.2696 102.534 C 111.2035 102.8092 111.038 103.1806 110.9018 103.3595 C 110.6896 103.6383 110.5924 103.6847 110.2206 103.6847 C 109.897 103.6847 109.6645 103.6022 109.3045 103.3595 Z" class="color713B28 svgShape"/><path d="M 178.0067 103.3444 C 177.8526 102.9425 179.0992 101.9139 179.865 101.8111 C 180.086 101.7815 180.2674 101.7294 180.268 101.6953 C 180.2687 101.6613 179.9649 101.3491 179.593 101.0015 L 178.9168 100.3696 L 179.2838 100.032 C 179.8165 99.5419 180.3484 99.42419 181.1434 99.62047 C 182.0499 99.8443 182.3669 100.0945 182.3669 100.5862 C 182.3669 101.2655 181.5082 102.0181 179.6936 102.9294 C 178.6558 103.4505 178.0999 103.5872 178.0067 103.3444 Z" fill="#52cc99" class="color000 svgShape"/><path fill="#52cc99" d="M193.1022 102.8092C192.9617 102.6578 192.7664 102.3764 192.6683 102.1838 192.4239 101.7043 192.0673 100.5212 192.0673 100.1902 192.0673 99.8593 192.7484 98.70479 193.0974 98.44406 193.3475 98.2572 193.3552 98.25768 193.7186 98.48236 194.5077 98.97037 194.9579 100.0466 194.8296 101.1386 194.6435 102.7235 193.7895 103.5493 193.1022 102.8092zM197.6871 102.243C197.1619 101.738 197.1253 101.6727 197.1409 101.2674 197.1778 100.3065 198.3882 98.50572 199.1207 98.32178 199.7964 98.15208 200.6676 98.77582 200.6676 99.42929 200.6676 99.95474 200.3045 100.9858 199.9185 101.5568 199.5806 102.0565 198.6715 102.7841 198.385 102.7841 198.3107 102.7841 197.9966 102.5406 197.6871 102.243z" class="color723B28 svgShape"/><path fill="#52cc99" d="M 203.667 102.3905 C 202.4758 102.0279 201.7799 100.971 201.694 99.3941 C 201.6057 97.77196 202.206 96.14325 203.3092 95.01199 C 203.9707 94.33359 204.1617 94.26738 204.6814 94.53632 C 205.3669 94.89101 205.6169 96.1181 205.6174 99.13197 C 205.6177 101.209 205.6053 101.3565 205.3977 101.7448 C 205.0658 102.3654 204.4004 102.6137 203.667 102.3905 Z" class="color350C08 svgShape"/><path fill="#52cc99" d="M 123.2868 99.6245 C 122.6706 99.31726 122.2636 98.86752 122.2681 98.49893 C 122.2775 97.72411 123.0716 96.29572 123.6445 96.0231 C 123.9643 95.87091 123.9913 95.87584 124.5446 96.18765 C 125.2923 96.60907 126.7732 97.71225 127.465 98.36324 C 127.9997 98.86635 128.0094 98.8851 127.815 99.0358 C 127.5734 99.22304 126.8612 99.4366 125.6317 99.69049 C 124.3776 99.94945 123.9123 99.93636 123.2868 99.6245 Z" class="colorA26E4D svgShape"/><path fill="#52cc99" d="M 138.3585 98.84451 C 137.6043 98.25211 135.4459 96.16437 134.8532 95.45395 C 134.2642 94.74794 134.1354 94.32672 134.265 93.5298 C 134.4257 92.54211 134.7942 91.92856 135.8734 90.85202 C 136.4113 90.31544 136.8997 89.87643 136.9588 89.87643 C 137.0179 89.87643 137.921 90.44644 138.9658 91.14311 L 140.8655 92.40979 L 140.8634 92.81912 C 140.8598 93.54759 140.5809 96.11023 140.426 96.83864 C 140.1214 98.27116 139.5728 99.28217 139.1003 99.28201 C 138.9986 99.28198 138.6648 99.0851 138.3585 98.84451 Z" class="color401414 svgShape"/><path fill="#52cc99" d="M 195.6975 98.90462 C 195.3734 98.64977 195.2672 98.26483 195.2686 97.3494 C 195.271 95.66498 195.9675 94.13681 196.8537 93.87112 C 197.7087 93.61482 198.8631 94.35788 199.015 95.2623 C 199.3047 96.98772 196.7821 99.75739 195.6975 98.90462 Z" class="color723B28 svgShape"/><path fill="#52cc99" d="M119.2979 98.78564C118.456 98.58551 117.4939 97.71964 117.007 96.72391 116.3914 95.46487 116.6219 94.78824 118.194 93.24054 119.4037 92.04971 119.6823 91.87044 120.1329 91.99324 120.8726 92.19479 121.9631 93.77565 122.1125 94.86295 122.1981 95.48518 121.9814 96.38361 121.5508 97.19183 121.2277 97.79852 120.2865 98.78177 120.0289 98.78177 119.9476 98.78177 119.8212 98.79959 119.7479 98.82137 119.6746 98.84314 119.4722 98.82706 119.2979 98.78564zM180.1335 98.81512C180.0968 98.77844 180.0668 98.51154 180.0668 98.22203 180.0668 97.81677 180.1461 97.54352 180.4112 97.03455 181.3023 95.32399 183.8945 92.64441 186.8671 90.3609 189.5023 88.33658 191.5809 87.33878 192.2633 87.77061 192.4926 87.91573 192.1836 88.1915 190.7172 89.15062 188.4622 90.62556 188.0538 90.90797 187.0346 91.69742 184.5902 93.59082 182.9847 95.21997 181.7457 97.06424 181.0631 98.08037 180.4132 98.88184 180.2719 98.88184 180.2325 98.88184 180.1702 98.85182 180.1335 98.81512zM185.117 97.81679C184.952 97.79276 184.6883 97.72234 184.5309 97.66031 184.2643 97.55524 184.2481 97.51773 184.294 97.11023 184.4586 95.64944 186.4456 93.48671 188.6171 92.40477 188.9472 92.24034 189.5827 91.98515 190.0294 91.83768L190.8416 91.56955 191.5294 91.82785C192.5034 92.19362 192.8784 92.47314 193.2081 93.07918 193.7355 94.04868 193.6534 95.44275 192.9901 96.78058 192.7647 97.23531 192.6304 97.37436 192.2173 97.58105 191.7178 97.83092 191.7135 97.83122 188.5671 97.84586 186.8346 97.85391 185.282 97.84084 185.117 97.81679z" class="color713B28 svgShape"/><path fill="#52cc99" d="M127.665 96.86639C126.9144 96.43987 125.6065 95.09152 125.4561 94.58917 125.1314 93.50482 126.1711 91.03358 127.2077 90.42572 127.4414 90.28871 127.7879 90.17662 127.9778 90.17662 128.8558 90.17662 130.9694 90.99892 131.5764 91.57669 131.9142 91.89819 131.9649 92.0045 131.9635 92.38745 131.9601 93.25935 130.7485 95.69859 129.8919 96.55782 129.1647 97.28726 128.5545 97.37183 127.665 96.86639zM200.1823 95.12663C199.6992 94.71989 199.5213 94.03608 199.5193 92.57807 199.5172 91.06332 199.6819 90.5102 200.2501 90.12388 200.9106 89.67483 201.4972 89.85101 202.0444 90.66276 202.8877 91.91373 202.636 93.67335 201.4377 94.90446 200.9021 95.45466 200.6292 95.50294 200.1823 95.12663z" class="color350C08 svgShape"/><path fill="#52cc99" d="M 112.3076 94.39737 C 111.3918 94.08061 110.7659 93.37744 110.7649 92.66431 C 110.7631 91.3884 112.7951 86.40721 113.6091 85.69212 C 114.3317 85.05731 114.8988 85.1319 115.806 85.98102 C 116.7203 86.83676 116.7882 87.05392 116.7766 89.08582 C 116.7604 91.91489 116.3064 93.40599 115.2409 94.13045 C 114.545 94.60361 113.2456 94.72183 112.3076 94.39737 Z" class="color713B28 svgShape"/><path fill="#52cc99" d="M 194.8174 92.55408 C 192.5916 91.2682 191.6673 90.55511 191.6673 90.12383 C 191.6673 89.45915 193.0409 88.20032 194.6174 87.42026 C 195.8186 86.82585 196.5967 86.63707 197.4797 86.72578 C 198.2828 86.80649 198.3599 86.70473 197.7843 86.32358 C 196.9326 85.75964 196.5502 85.79897 194.7414 86.63654 C 192.9512 87.46542 192.0944 87.49274 192.5 86.70799 C 192.8527 86.02559 198.1146 81.14215 198.6429 81.00693 C 199.0009 80.91528 200.2384 81.56247 200.9298 82.20297 C 201.7796 82.99017 202.1176 83.73582 202.1176 84.82343 C 202.1176 85.53838 202.0786 85.70575 201.752 86.38997 C 201.212 87.52144 201.138 87.57507 200.1176 87.57507 C 199.65 87.57507 199.2675 87.59592 199.2675 87.6214 C 199.2675 87.64688 199.362 87.90578 199.4775 88.19673 C 200.0707 89.69101 199.082 91.31773 196.9535 92.34949 C 196.3837 92.62572 195.8274 92.87576 195.7174 92.90512 C 195.5918 92.93863 195.2568 92.80794 194.8174 92.55408 Z" class="color92584F svgShape"/><path fill="#52cc99" d="M 122.8366 92.76166 C 122.0424 92.58998 121.3108 92.03421 121.015 91.37775 C 120.8514 91.01492 120.8432 90.88557 120.9426 90.24713 C 121.1614 88.84297 121.8545 87.1183 122.6159 86.08344 C 123.1597 85.34435 123.3762 85.21266 123.7756 85.3782 C 124.1424 85.53021 124.9736 86.43108 125.2172 86.94052 C 125.6413 87.82758 125.4688 89.96732 124.8701 91.2476 C 124.2718 92.52673 123.7044 92.94923 122.8366 92.76166 Z" class="color713B28 svgShape"/><path fill="#52cc99" d="M 143.6912 92.55304 C 143.4076 92.37419 142.6987 91.86264 142.1159 91.41626 C 141.5331 90.96988 140.4621 90.2514 139.7358 89.81967 C 137.5702 88.53226 136.7919 87.58345 137.1195 86.63004 C 137.2793 86.16496 137.4433 85.98126 138.3357 85.26743 C 139.2572 84.5303 139.9511 84.26389 141.1155 84.2002 C 142.2327 84.13907 143.4065 84.39529 144.6235 84.96594 C 146.3053 85.75447 146.4495 85.99449 146.2725 87.70993 C 146.131 89.08023 145.7362 91.0811 145.4631 91.81131 C 145.204 92.50432 144.8633 92.87823 144.4909 92.87823 C 144.3346 92.87823 143.9747 92.73189 143.6912 92.55304 Z" class="color401414 svgShape"/><path fill="#52cc99" d="M 204.7005 92.52603 C 204.1975 92.2244 203.7275 91.60075 203.1937 90.52682 C 202.5643 89.26041 202.3276 88.444 202.3234 87.52504 C 202.319 86.57526 202.5243 86.09807 203.1778 85.53836 C 203.5352 85.23228 203.6251 85.19722 203.8063 85.2933 C 204.2171 85.51122 206.5522 87.93385 206.9498 88.55467 C 207.7682 89.83238 207.6969 90.82149 206.6978 92.05429 C 206.0771 92.82007 205.4412 92.97026 204.7005 92.52603 Z" class="color713B28 svgShape"/><path fill="#52cc99" d="M 131.7651 90.28897 C 130.8136 89.97475 129.511 89.01053 129.1076 88.32179 C 128.8647 87.90707 128.8489 87.82349 128.9498 87.48639 C 129.0862 87.03093 129.8488 85.74681 130.6161 84.68053 C 131.9902 82.77095 132.8133 82.1707 134.1652 82.09241 C 135.2802 82.02782 136.8954 82.50804 137.2027 82.99545 C 137.3412 83.21513 137.2632 83.42859 136.0952 86.02414 C 135.5751 87.17982 135.0567 88.4071 134.9431 88.75142 C 134.7056 89.47169 134.4006 89.82297 133.7668 90.10629 C 133.2818 90.32314 132.1746 90.42418 131.7651 90.28897 Z" class="color401414 svgShape"/><path fill="#52cc99" d="M 97.21393 90.00995 C 90.86414 89.48657 85.46272 87.97763 82.21269 85.81918 C 81.90429 85.61436 81.21779 85.04739 80.68713 84.55927 C 79.3948 83.3705 79.29593 83.33749 76.08844 83.02298 C 70.76636 82.50113 68.84349 82.15312 67.62169 81.49066 C 67.24152 81.28453 66.83743 80.99118 66.72371 80.83879 C 66.53299 80.58321 66.52869 80.54077 66.66832 80.29187 C 66.78895 80.07683 66.92055 80.0074 67.3163 79.94992 C 67.95016 79.85785 72.29723 79.59982 74.51312 79.52274 C 82.93195 79.22989 84.55481 79.00618 90.88271 77.26617 C 91.88979 76.98926 93.83882 76.51596 95.21387 76.2144 C 100.7383 75.0029 101.7137 74.72339 102.8141 74.03667 C 103.4992 73.6091 105.297 72.6243 109.5144 70.36633 C 110.6694 69.74792 112.042 68.96133 112.5645 68.61835 C 113.087 68.27536 113.9286 67.7386 114.4348 67.42557 C 115.5536 66.73367 118.2568 64.7088 121.2148 62.34714 C 123.7051 60.35878 125.3586 59.10973 126.815 58.11665 C 128.5291 56.9478 129.2552 56.1073 130.7129 53.60477 C 132.3084 50.86541 133.993 48.81071 135.4954 47.77152 C 137.6141 46.30607 140.158 45.45957 145.6567 44.39037 C 150.4231 43.46355 152.5652 42.58125 155.0518 40.52069 C 156.742 39.12008 157.664 38.55824 159.3262 37.91605 C 160.5153 37.45665 160.8658 37.27515 162.4022 36.32327 C 165.5288 34.38613 167.0814 33.80858 167.5721 34.40017 C 167.6379 34.47943 167.7269 35.05063 167.77 35.66949 C 167.8345 36.59449 167.9231 37.01667 168.268 38.04206 C 168.8901 39.8915 168.7946 40.28432 167.5122 41.15015 C 167.1161 41.41758 166.3096 42.02181 165.72 42.4929 C 165.1303 42.964 164.5334 43.37818 164.3936 43.41331 C 164.2537 43.44845 163.594 43.43938 162.9277 43.39318 C 161.2962 43.28005 160.9637 43.29305 160.5939 43.48439 C 160.4204 43.57417 159.8851 44.13192 159.4044 44.72385 C 158.9238 45.31579 158.5047 45.82969 158.4733 45.86586 C 158.4418 45.90203 157.4485 45.98195 156.266 46.04344 C 152.429 46.24297 150.7161 46.46029 148.3061 47.0533 C 144.3288 48.03197 138.8779 50.42418 135.3875 52.72282 C 133.1106 54.22235 131.5694 55.71304 130.286 57.65718 C 129.8682 58.29005 129.3213 59.04991 129.0707 59.34573 C 128.4208 60.11288 126.2746 61.99818 123.6649 64.09451 C 118.6355 68.13438 117.134 69.46675 116.3164 70.61493 C 115.7214 71.45065 115.5363 71.84827 114.9739 73.49916 C 114.1603 75.88741 113.6307 76.89894 111.8352 79.49454 C 110.7347 81.08545 110.0629 82.3885 109.7583 83.52264 C 109.5848 84.16884 109.5343 84.69919 109.4965 86.27429 C 109.4399 88.6338 109.3919 88.83064 108.811 89.08777 C 108.3454 89.29384 105.2255 89.79932 103.3642 89.97026 C 102.3266 90.06555 98.21076 90.0921 97.21393 90.00995 Z" class="colorAA4225 svgShape"/><path fill="#52cc99" d="M 118.4526 88.9386 C 118.1041 88.76474 117.8015 88.13564 117.6104 87.18756 C 117.4075 86.18079 117.4537 85.51045 117.7554 85.08661 C 118.0639 84.65305 119.5232 83.53162 120.3186 83.11679 C 121.2897 82.61034 121.9815 82.6653 122.1119 83.25928 C 122.2285 83.79041 121.5283 85.46359 120.4453 87.24207 C 119.5385 88.73093 118.9835 89.20345 118.4526 88.9386 Z" class="colorA26E4D svgShape"/><path fill="#52cc99" d="M 206.6526 86.62292 C 206.1001 86.33501 205.5915 85.75259 205.5092 85.31339 C 205.4766 85.13972 205.5213 84.71079 205.6084 84.36021 C 205.8156 83.52605 206.7683 81.6011 207.1579 81.22938 C 207.4261 80.97344 207.4947 80.95129 207.7118 81.05027 C 208.0702 81.21366 208.3372 81.81739 208.4654 82.75477 C 208.6815 84.33373 208.2614 86.60209 207.7139 86.81229 C 207.4246 86.92335 207.1273 86.87029 206.6526 86.62292 Z" class="color723B28 svgShape"/><path fill="#52cc99" d="M 126.5068 85.6803 C 126.0238 85.47723 125.4594 84.54863 125.0014 83.20317 C 124.6478 82.16454 124.6307 80.90108 124.9586 80.0459 C 125.243 79.30411 126.0418 78.41452 126.5641 78.25795 C 127.3383 78.02585 128.5333 78.53339 129.3835 79.45544 C 130.1767 80.31578 130.4161 80.85559 130.4106 81.77161 C 130.4046 82.75533 130.0169 83.62357 129.2016 84.47879 C 128.3794 85.34123 127.0792 85.92094 126.5068 85.6803 Z" class="color401414 svgShape"/><path fill="#52cc99" d="M 50.37709 84.68199 C 49.37769 84.33667 48.96911 83.82596 49.26718 83.29462 C 49.47644 82.92157 50.12115 82.74658 51.07195 82.80475 C 52.51326 82.89293 53.15529 83.59039 52.50593 84.36255 C 52.06975 84.88121 51.2916 84.99797 50.37709 84.68199 Z" class="color50271A svgShape"/><path fill="#52cc99" d="M147.2657 84.68369C147.0182 84.58762 146.4356 84.26997 145.971 83.97781 144.8096 83.24742 144.0118 82.90433 142.6698 82.55817 140.7914 82.07362 140.5367 81.79454 140.5436 80.22836 140.5506 78.63797 141.0908 77.06476 141.8214 76.5072 142.303 76.13966 143.5249 76.01006 145.1428 76.15494 147.5137 76.36725 148.717 76.75087 149.6177 77.58154 150.6243 78.50998 150.8767 79.67065 150.3488 80.94464 149.8078 82.25014 148.4258 84.3997 147.9157 84.72919 147.7487 84.83702 147.6414 84.82951 147.2657 84.68369zM43.5314 84.61456C42.18147 84.41267 41.52064 84.18394 41.48093 83.90485 41.4385 83.60664 42.0777 82.91562 42.53594 82.7643 42.99733 82.61194 44.69523 82.70015 45.50309 82.91846 46.75816 83.25761 47.13662 83.59134 46.79118 84.05428 46.39279 84.58818 46.10053 84.72118 45.28035 84.74185 44.8578 84.7525 44.07077 84.69522 43.5314 84.61456zM35.75571 84.33664C34.46328 83.98792 34.03295 83.26434 34.69373 82.55093 35.0299 82.188 36.045 82.03412 37.70663 82.09421 39.19689 82.1481 39.71508 82.30052 39.81919 82.71558 39.99146 83.40231 39.41172 84.11711 38.51046 84.32922 37.78273 84.50049 36.37695 84.50426 35.75571 84.33664z" class="color713B28 svgShape"/><path fill="#52cc99" d="M 192.2881 83.97995 C 192.0062 83.88446 191.5149 83.64822 191.1964 83.45496 C 190.4493 83.00169 189.9161 82.79826 189.252 82.71317 C 188.6398 82.63472 188.0208 82.35609 187.9294 82.11789 C 187.8152 81.82004 187.8651 81.50426 188.0533 81.33383 C 188.7433 80.709 191.8516 81.10037 193.1169 81.97144 C 193.738 82.39899 193.8245 82.78438 193.4658 83.5257 C 193.1881 84.0997 192.9326 84.19826 192.2881 83.97995 Z" class="color723B28 svgShape"/><path fill="#52cc99" d="M 113.0246 83.66763 C 112.1686 83.5349 111.9644 83.37119 111.9644 82.81741 C 111.9644 81.73874 112.8375 80.18456 114.2102 78.81982 C 115.1883 77.84727 115.992 77.31035 116.7728 77.1077 C 117.9832 76.79353 120.8738 76.66164 121.9738 76.87038 C 122.914 77.04878 123.6636 77.73177 123.6645 78.4108 C 123.6654 79.12515 123.0974 79.6987 121.0673 81.03305 C 120.4912 81.41174 119.5687 82.07556 119.0172 82.50824 C 117.5141 83.68771 117.4503 83.70918 115.3646 83.73633 C 114.402 83.74886 113.349 83.71796 113.0246 83.66763 Z" class="color401414 svgShape"/><path fill="#52cc99" d="M 54.40263 82.97905 C 54.12224 82.93437 53.72918 82.8438 53.52917 82.77774 C 52.59961 82.47078 52.37934 81.19955 53.19596 80.85463 C 53.71533 80.63525 56.06085 80.69395 56.83393 80.94568 C 58.09412 81.35602 58.81778 81.9949 58.56264 82.47189 C 58.33859 82.89078 57.89997 83.00247 56.36249 83.03223 C 55.56496 83.04765 54.68303 83.02373 54.40263 82.97905 Z" class="color863A32 svgShape"/><path fill="#52cc99" d="M 47.37906 82.22333 C 46.64563 81.99432 46.40922 81.64412 46.66512 81.1657 C 47.06282 80.42216 49.07479 80.58661 49.61172 81.40654 C 50.08103 82.1232 48.68917 82.63239 47.37906 82.22333 Z" class="color50271A svgShape"/><path fill="#52cc99" d="M 60.40145 82.17383 C 59.7648 81.91644 59.54989 80.91629 59.99062 80.26193 C 60.26152 79.8597 60.59242 79.67383 61.0411 79.67181 C 61.57369 79.66942 64.22694 80.2811 64.55814 80.48262 C 65.21694 80.88348 64.79379 81.61154 63.72058 81.92371 C 62.59405 82.25137 60.90764 82.37846 60.40145 82.17383 Z" class="color713B28 svgShape"/><path fill="#52cc99" d="M 41.17996 82.00317 C 40.66967 81.82262 39.96192 81.18491 39.96192 80.90567 C 39.96192 80.79761 40.02597 80.62178 40.10426 80.51495 C 40.32169 80.21828 41.81408 80.24619 42.52717 80.56027 C 43.21001 80.86102 43.50682 81.17918 43.42158 81.51901 C 43.2724 82.11372 42.16709 82.35245 41.17996 82.00317 Z" class="color92584F svgShape"/><path fill="#52cc99" d="M 31.09736 81.72064 C 30.55197 81.44872 29.89253 80.6718 29.53831 79.88383 C 29.36529 79.49899 29.35946 79.42941 29.48927 79.29951 C 29.83985 78.94875 31.77301 79.76183 32.46874 80.55266 C 32.89975 81.04259 32.99051 81.52831 32.70451 81.81447 C 32.45905 82.06007 31.68782 82.01505 31.09736 81.72064 Z" class="color50271A svgShape"/><path fill="#52cc99" d="M 135.8153 81.23196 C 134.9157 80.80487 134.6475 80.51167 134.5645 79.86465 C 134.4154 78.70183 134.8044 77.45169 135.7421 76.08041 C 136.7255 74.64224 137.4948 74.31378 138.4998 74.90306 C 139.354 75.40399 139.6654 76.0419 139.6654 77.29121 C 139.6654 78.80443 138.9446 80.31836 137.8351 81.13562 C 137.1015 81.67592 136.7825 81.69115 135.8153 81.23196 Z" class="color713B28 svgShape"/><path fill="#52cc99" d="M 35.76177 80.83017 C 34.7566 80.45218 32.29533 79.06905 31.70498 78.55042 C 31.2219 78.12604 31.13502 77.93706 31.27832 77.62238 C 31.78793 76.50327 34.24257 76.84436 36.14437 78.29855 C 37.18889 79.09723 37.56025 80.0217 37.09045 80.65381 C 36.85658 80.96849 36.31927 81.03981 35.76177 80.83017 Z" class="color863A32 svgShape"/><path fill="#52cc99" d="M 44.41208 80.12686 C 43.45851 79.90709 42.35827 79.33688 42.15519 78.9572 C 41.84494 78.37718 42.37209 78.17056 44.16206 78.17056 C 46.0597 78.17056 46.41977 78.33217 46.52624 79.23169 C 46.61131 79.95033 46.38507 80.19601 45.60199 80.23544 C 45.27755 80.25177 44.74209 80.20293 44.41208 80.12686 Z" class="color50271A svgShape"/><path fill="#52cc99" d="M 50.23687 80.06201 C 49.25622 79.83076 48.42412 79.1741 48.48246 78.67752 C 48.52548 78.31133 48.89155 78.17236 49.81226 78.17267 C 51.23461 78.17313 52.88737 78.68365 53.2332 79.22935 C 53.42615 79.53383 53.10116 79.91179 52.52067 80.05804 C 52.00315 80.18843 50.78197 80.19055 50.23687 80.06201 Z" class="color713B28 svgShape"/><path fill="#52cc99" d="M 55.93824 79.74373 C 55.1773 79.4928 54.96458 79.04848 55.36285 78.54189 C 55.95531 77.78827 57.65525 77.56435 58.7871 78.09082 C 59.74945 78.53845 59.80223 79.17891 58.91268 79.61478 C 58.41952 79.85641 56.52858 79.9384 55.93824 79.74373 Z" class="color50271A svgShape"/><path fill="#52cc99" d="M 131.2593 79.76828 C 130.2441 79.48907 128.965 78.15205 128.9651 77.3703 C 128.9653 76.53674 129.9392 75.12592 130.9724 74.46259 C 131.6002 74.05949 132.7014 73.67157 133.2254 73.66887 C 133.7417 73.66621 134.2704 74.00702 134.3863 74.41721 C 134.6608 75.38882 133.6215 78.0694 132.5539 79.14322 C 131.99 79.71034 131.6484 79.87529 131.2593 79.76828 Z" class="color92584F svgShape"/><path fill="#52cc99" d="M 38.61187 79.01932 C 37.87935 78.7594 37.631 78.12114 38.0933 77.68658 C 38.27254 77.5181 38.44736 77.46915 38.86832 77.46957 C 40.28529 77.47104 41.04333 78.15764 40.45467 78.9064 C 40.26984 79.14151 40.18055 79.16957 39.62965 79.16565 C 39.28988 79.16324 38.83188 79.09738 38.61187 79.01932 Z" class="color863A32 svgShape"/><path fill="#52cc99" d="M 61.20229 78.62436 C 60.82499 78.46297 60.46264 77.97894 60.46264 77.63635 C 60.46264 77.21834 60.91275 76.78894 61.54633 76.60252 C 62.67147 76.27148 64.49724 76.40843 64.6356 76.83426 C 64.72208 77.1004 64.01509 77.68466 63.0255 78.16489 C 61.82782 78.74608 61.61328 78.80016 61.20229 78.62436 Z" class="color50271A svgShape"/><path fill="#52cc99" d="M67.58446 78.28046C66.14914 77.78439 66.26072 76.80766 67.79155 76.46771 68.44157 76.32336 71.90017 76.0739 72.33203 76.14021 72.50747 76.16714 72.7245 76.27045 72.81432 76.36975 72.96249 76.53357 72.96338 76.57784 72.82393 76.84766 72.50835 77.45827 71.53095 78.06139 70.43991 78.31877 69.56413 78.52538 68.24177 78.50763 67.58446 78.28046zM75.26315 77.96078C74.54912 77.82324 73.97756 77.57214 73.91264 77.36749 73.87973 77.26375 73.9251 77.03896 74.01347 76.86797 74.3759 76.16672 75.75736 75.61818 78.56328 75.0614 80.52796 74.67155 81.63496 74.62143 81.9523 74.90799 82.57391 75.4693 81.76543 76.95412 80.47972 77.61243 79.85672 77.93143 78.88017 78.0663 77.26323 78.05667 76.4107 78.05161 75.51067 78.00845 75.26315 77.96078z" class="colorB54728 svgShape"/><path fill="#52cc99" d="M 83.71141 76.98805 C 82.9119 76.61205 82.9363 75.98344 83.7805 75.20738 C 84.34691 74.68671 84.96432 74.29358 86.71635 73.33804 C 89.58168 71.77533 92.04865 70.68304 92.91473 70.5936 C 93.35757 70.54787 93.47099 70.57211 93.64932 70.75053 C 93.82686 70.92816 93.84361 71.00529 93.75516 71.23807 C 93.52711 71.8382 92.37002 73.16634 91.01372 74.38472 C 88.84915 76.32918 87.29997 77.06462 85.2135 77.13829 C 84.28898 77.17093 84.04932 77.14697 83.71141 76.98805 Z" class="colorC65023 svgShape"/><path fill="#52cc99" d="M 150.686 76.1145 C 150.2846 75.97769 149.6321 75.70241 149.2359 75.50281 C 148.2182 74.98996 147.3782 74.68918 146.6295 74.5695 C 145.564 74.3992 144.6603 74.07712 144.3351 73.75177 L 144.0386 73.45505 L 144.0922 72.28513 C 144.1738 70.50288 144.7962 68.63768 145.4762 68.13754 C 146.1325 67.65477 148.5358 68.04906 150.3995 68.94527 C 151.9903 69.71024 152.9294 70.51416 153.2588 71.39291 C 153.7968 72.82848 153.4398 75.01045 152.5142 75.94312 C 152.0058 76.45538 151.7551 76.4789 150.686 76.1145 Z" class="color401414 svgShape"/><path fill="#52cc99" d="M 126.3192 75.55341 C 126.0728 75.35941 126.0529 75.29674 126.1122 74.90091 C 126.2074 74.26599 126.7368 72.72136 127.1234 71.95111 C 127.8102 70.58238 128.6359 70.42615 129.6771 71.46793 C 130.3051 72.09633 130.3761 72.45549 130.0243 73.2244 C 129.53 74.30466 127.711 75.76801 126.8625 75.76801 C 126.7137 75.76801 126.4692 75.67145 126.3192 75.55341 Z" class="colorA26E4D svgShape"/><path fill="#52cc99" d="M 117.8738 75.46548 C 117.2937 75.34352 116.9921 75.04297 116.8056 74.40109 C 116.5369 73.476 116.8806 72.38206 117.8273 71.14954 C 118.4026 70.4005 119.5567 69.35548 120.1988 69.00214 C 120.6597 68.74846 120.8326 68.71422 121.8198 68.68082 C 123.1756 68.63495 124.3652 68.83896 125.2337 69.26628 C 126.6246 69.95062 126.7117 70.66136 125.5772 72.0701 C 125.0723 72.69701 124.8782 73.09727 124.6585 73.96449 C 124.5093 74.55353 124.0236 75.01111 123.3945 75.15546 C 122.2794 75.4113 118.599 75.61798 117.8738 75.46548 Z" class="color401414 svgShape"/><path fill="#52cc99" d="M 62.71773 75.16168 C 61.88655 74.9528 61.75821 74.47733 62.26967 73.5018 C 62.72296 72.63724 63.09995 72.14499 68.08246 65.91211 C 72.87646 59.91504 74.29897 58.26942 75.93443 56.82858 C 77.84151 55.14845 79.05931 54.40573 80.4948 54.04724 C 81.49591 53.79723 81.90881 53.85361 82.45702 54.31516 C 82.91135 54.69766 82.99422 55.1651 82.93422 57.00681 C 82.89174 58.3109 82.83369 58.78401 82.62114 59.55832 C 81.86384 62.31712 78.90511 66.85786 76.10127 69.5643 C 73.12495 72.43723 69.87249 74.20439 66.14529 74.97369 C 64.96774 75.21674 63.30068 75.30818 62.71773 75.16168 Z" class="colorDA995E svgShape"/><path fill="#52cc99" d="M 137.6154 73.73201 C 136.7323 73.4413 136.2653 73.02336 136.2653 72.52364 C 136.2653 72.11615 137.7633 68.8924 138.6401 67.41302 C 139.3456 66.22269 139.6796 66.03584 140.6154 66.30804 C 141.0038 66.42102 141.3071 66.60156 141.6326 66.91364 L 142.0964 67.35828 L 142.0314 68.9866 C 141.9212 71.746 141.566 72.99844 140.738 73.54678 C 140.3611 73.79637 140.2424 73.81863 139.1728 73.84027 C 138.4245 73.85541 137.874 73.81714 137.6154 73.73201 Z" class="color401414 svgShape"/><path fill="#52cc99" d="M 97.13873 73.45689 C 96.62656 73.25752 96.65157 72.65388 97.20677 71.81564 C 98.03146 70.57053 99.4895 69.26746 102.2935 67.26959 C 103.3226 66.53638 104.5248 65.60454 104.9651 65.19885 C 105.4799 64.72452 105.8484 64.46124 105.9975 64.46124 C 106.7115 64.46124 107.0887 65.95723 106.7057 67.26978 C 106.4232 68.23767 105.8912 69.05812 104.9245 70.01697 C 103.5573 71.37311 101.6469 72.54201 99.77252 73.1694 C 98.75105 73.51132 97.60104 73.63686 97.13873 73.45689 Z" class="colorB54728 svgShape"/><path fill="#52cc99" d="M 132.6406 71.95734 C 132.0517 71.81842 131.1482 71.31792 130.7651 70.91837 L 130.4151 70.55331 L 130.4182 69.58353 C 130.4209 68.74036 130.461 68.51503 130.725 67.85771 C 131.3199 66.37648 132.515 64.9454 133.6011 64.41374 C 134.0889 64.17496 134.256 64.14363 134.8601 64.17778 C 135.4352 64.2103 135.631 64.26945 135.9832 64.51711 C 136.9271 65.18091 137.3107 66.24013 137.0193 67.37836 C 136.4763 69.49876 134.3832 72.10219 133.2586 72.05576 C 133.1247 72.05023 132.8466 72.00594 132.6406 71.95734 Z" class="color401414 svgShape"/><path fill="#52cc99" d="M 207.7178 71.6264 C 207.4428 71.55272 206.8299 71.37694 206.3557 71.23578 C 205.2053 70.8933 203.6712 70.78798 198.7675 70.71492 C 194.8185 70.65608 192.7538 70.54907 192.0769 70.36816 C 191.645 70.25273 189.7222 69.96288 187.0671 69.61298 C 181.7604 68.91364 173.0046 66.68674 170.3665 65.36543 C 169.5023 64.93262 168.7258 64.3414 168.3626 63.83978 C 168.1181 63.50204 168.0665 63.33284 168.0668 62.8703 C 168.0672 62.20102 168.3403 61.6656 168.69 61.6485 C 169.4671 61.61049 169.8002 61.72194 171.7166 62.661 C 174.0524 63.80565 175.9689 64.38692 178.9668 64.86002 C 182.1825 65.36748 183.0773 65.54701 187.6671 66.60559 C 190.1978 67.18925 190.9469 67.25829 197.0195 67.46747 C 202.5332 67.65739 204.2452 67.97432 206.8439 69.28619 C 207.8813 69.80991 208.1684 69.91144 208.7091 69.94589 C 209.5489 69.99939 209.9584 69.85086 210.6478 69.24271 C 211.5989 68.40364 211.9308 68.21446 212.2204 68.3465 C 212.3805 68.41946 212.468 68.54156 212.468 68.692 C 212.468 69.41045 211.2303 70.87556 210.1649 71.41817 C 209.5141 71.74966 208.4999 71.83597 207.7178 71.6264 Z" class="color713B28 svgShape"/><path fill="#52cc99" d="M 80.96336 71.29019 C 80.61436 71.11575 80.61339 71.11336 80.62796 70.46484 C 80.65941 69.06555 82.41449 64.44949 83.93542 61.7659 C 85.86352 58.36389 87.13396 56.94106 90.01367 54.95851 C 92.50136 53.24586 93.13336 52.67729 98.91399 46.95171 C 105.6478 40.28203 106.1072 39.91659 107.7643 39.91171 C 108.6783 39.90901 109.2639 40.15691 109.8522 40.7955 C 110.4994 41.49798 110.6205 42.31365 110.2559 43.5132 C 109.8674 44.79112 109.2388 45.80471 106.9031 48.91988 C 105.472 50.82851 103.9132 53.23935 102.0626 56.40643 C 101.3873 57.56212 100.5601 58.97736 100.2244 59.55138 C 99.47509 60.83261 98.44843 61.91975 97.26393 62.68623 C 96.79642 62.98875 95.51387 63.72127 94.41383 64.31403 C 91.00999 66.14821 87.65337 68.10715 84.68669 69.99083 C 83.05861 71.02458 82.11404 71.4657 81.52946 71.46529 C 81.41061 71.46519 81.15587 71.38641 80.96336 71.29019 Z" class="colorE9A655 svgShape"/><path fill="#52cc99" d="M 154.4159 69.94388 C 153.9137 69.76126 153.3539 69.32817 152.3637 68.35609 C 151.2296 67.24278 150.5276 66.77034 149.5485 66.4615 C 148.5712 66.1532 148.1291 65.92419 147.8658 65.58972 C 147.6815 65.35568 147.6568 65.23273 147.7094 64.81146 C 147.7894 64.17087 148.2854 63.14586 148.6735 62.81908 C 149.1176 62.44521 149.6853 62.32016 150.9158 62.32515 C 152.1087 62.32999 152.9434 62.49806 153.8611 62.91827 C 154.6034 63.25813 155.8032 64.49855 156.2945 65.43414 C 156.748 66.29753 156.7714 66.76349 156.4148 67.82635 C 155.8069 69.63809 155.2366 70.24228 154.4159 69.94388 Z" class="color713B28 svgShape"/><path fill="#52cc99" d="M 209.1562 67.76303 C 208.5192 67.09306 208.273 65.92514 208.2698 63.55809 C 208.2655 60.40118 208.7873 58.52519 210.01 57.30183 C 211.1796 56.13156 212.1423 56.05319 213.2019 57.04201 C 213.756 57.55905 213.8194 57.7877 213.8028 59.20811 C 213.7659 62.36644 213.1229 65.30795 212.1514 66.7637 C 211.6006 67.58896 210.7344 68.16347 210.041 68.16347 C 209.5829 68.16347 209.5021 68.12691 209.1562 67.76303 Z" class="colorA26E4D svgShape"/><path fill="#52cc99" d="M 125.9149 67.49643 C 124.4086 67.31223 123.5761 67.02559 123.2933 66.59366 C 122.7947 65.83229 124.1932 64.29793 127.215 62.29086 C 129.0749 61.05551 129.9623 60.5443 130.1881 60.57803 C 131.1342 60.71941 131.2324 64.03058 130.3433 65.81206 C 129.6699 67.16133 128.0897 67.76237 125.9149 67.49643 Z" class="color401414 svgShape"/><path fill="#52cc99" d="M 110.0989 66.10587 C 109.8649 65.87173 109.8459 65.79091 109.8807 65.1803 C 109.9244 64.41318 110.2947 63.59131 111.2336 62.1778 C 112.4368 60.3663 114.9593 57.61388 116.1848 56.77525 C 116.7584 56.38274 117.5269 56.04417 117.8665 56.03436 C 118.2748 56.02257 118.767 56.33745 118.9226 56.71005 C 119.2763 57.55702 118.9952 59.50024 118.3139 60.91733 C 117.2468 63.13719 114.1869 65.68192 111.9503 66.20946 C 110.957 66.44374 110.4058 66.4129 110.0989 66.10587 Z" class="colorB54728 svgShape"/><path fill="#52cc99" d="M 143.164 65.97874 C 142.691 65.72964 142.1655 64.94162 142.1655 64.48154 C 142.1655 63.64326 143.087 62.55353 144.1242 62.16525 C 144.6516 61.96782 145.575 61.89285 145.9075 62.02049 C 146.2397 62.14804 146.0112 63.68292 145.5138 64.66498 C 145.1864 65.31139 144.8094 65.73563 144.357 65.96654 C 143.8796 66.21021 143.6087 66.21298 143.164 65.97874 Z" class="colorA26E4D svgShape"/><path fill="#52cc99" d="M196.1174 65.41542C193.3563 64.88579 189.4676 63.802 188.2171 63.21365 187.3264 62.79457 187.1392 62.64912 187.2199 62.43886 187.2977 62.23579 188.7486 61.88075 191.2064 61.46327 195.4884 60.73595 196.5112 60.78943 198.4417 61.84158 199.3437 62.33319 200.23 63.20892 200.322 63.69937 200.4016 64.12364 200.2366 64.80957 199.9794 65.12425 199.4858 65.7282 198.2382 65.82225 196.1174 65.41542zM138.5321 64.11766C137.9106 63.9505 137.5725 63.6954 137.2813 63.17374 136.8143 62.33734 137.0421 61.47318 137.9759 60.53885 138.638 59.87637 139.4172 59.52414 140.3154 59.48126 141.1117 59.44325 141.6213 59.66484 141.6865 60.07744 141.7877 60.71756 140.9487 62.89758 140.3118 63.64937 140.0199 63.99397 139.516 64.26659 139.1936 64.25438 139.0956 64.25067 138.7979 64.18913 138.5321 64.11766z" class="color713B28 svgShape"/><path fill="#52cc99" d="M 181.5477 63.01103 C 179.7406 62.55562 178.2849 61.44748 178.0258 60.33003 C 177.8756 59.68246 178.4473 58.68111 179.13 58.39566 C 179.304 58.32292 179.9739 58.21185 180.6187 58.14886 C 182.5039 57.96468 183.9721 58.22046 185.0214 58.91588 C 185.6502 59.3327 186.0055 59.92787 186.0055 60.56462 C 186.0055 61.46425 185.4266 62.42252 184.6364 62.83081 C 184.1914 63.06075 183.9737 63.10318 183.1169 63.12685 C 182.4897 63.14417 181.9047 63.101 181.5477 63.01103 Z" class="color371E1D svgShape"/><path fill="#52cc99" d="M201.9487 62.86902C201.009 62.56209 199.9487 62.01947 199.3274 61.52747 198.851 61.15025 198.3667 60.41023 198.3697 60.06404 198.3754 59.40413 199.3825 57.91711 200.6776 56.65659 201.9929 55.37637 202.9067 54.95557 204.3713 54.95557 205.4396 54.95557 206.0884 55.17111 206.6194 55.70233 207.4715 56.55492 207.3308 57.6369 206.2088 58.86023 205.4107 59.73041 205.0099 60.3483 204.3524 61.72221 204.0732 62.30579 203.7599 62.86812 203.6562 62.97186 203.3976 63.23056 202.9783 63.20531 201.9487 62.86902zM133.7391 62.80377C132.9414 62.3671 132.2982 60.29474 132.5634 59.01628 132.6637 58.53287 132.772 58.35074 133.2852 57.80185 134.0763 56.95563 135.117 56.4146 135.9628 56.40973 137.0178 56.40367 137.3886 56.81934 137.1095 57.69513 136.6611 59.10255 134.5392 62.87701 134.1652 62.93265 134.0827 62.94492 133.8909 62.88692 133.7391 62.80377z" class="colorA26E4D svgShape"/><path fill="#52cc99" d="M 173.8666 62.202 C 172.5647 61.59579 171.4665 60.36823 171.4665 59.51917 C 171.4665 58.70854 171.9644 58.41264 173.3166 58.41963 C 174.8124 58.42737 175.7357 58.85616 176.1996 59.75854 C 176.4373 60.2209 176.4743 60.39296 176.4316 60.83589 C 176.2967 62.23555 175.1968 62.82135 173.8666 62.202 Z" class="color723B28 svgShape"/><path fill="#52cc99" d="M143.6579 60.06631C142.705 59.11292 144.1151 56.52809 145.6696 56.37863 146.2484 56.32298 146.8698 56.62784 147.1707 57.11505 147.6665 57.91766 147.6066 59.23763 147.0533 59.70346 146.6178 60.0701 145.58 60.3588 144.6974 60.3588 144.0049 60.3588 143.9288 60.33739 143.6579 60.06631zM138.5969 58.65709C137.544 58.23264 138.5498 55.88036 140.1287 55.07439 140.757 54.75365 141.6532 54.61472 142.2573 54.74435 143.2384 54.95488 143.9614 55.48984 143.8074 55.89134 143.7266 56.1021 140.3866 58.22577 139.6654 58.52492 139.0672 58.7731 138.9275 58.79037 138.5969 58.65709z" class="colorA26E4D svgShape"/><path fill="#52cc99" d="M 107.6865 58.34567 C 107.4512 58.22913 107.2091 58.04118 107.1486 57.92801 C 106.9969 57.64452 107.0295 56.28195 107.2131 55.22862 C 107.8818 51.39178 110.419 47.53028 114.1145 44.72488 C 115.2981 43.82641 115.8163 43.61657 116.8594 43.61343 C 118.1111 43.60966 118.8896 43.92621 119.3763 44.63678 C 119.5683 44.91711 119.6147 45.11355 119.6147 45.64496 C 119.6147 46.22816 119.574 46.36874 119.2647 46.85297 C 118.8267 47.53866 118.1972 48.27306 116.2996 50.312 C 114.6183 52.11856 112.4734 54.55206 111.3689 55.90614 C 110.4404 57.04451 109.2952 58.22948 108.9443 58.41496 C 108.5676 58.61409 108.186 58.59308 107.6865 58.34567 Z" class="colorB7562E svgShape"/><path fill="#52cc99" d="M 167.5164 58.41742 C 166.0891 57.96458 164.9221 56.6981 164.2285 54.8493 C 163.7568 53.5919 163.7061 52.01579 164.1172 51.38796 C 164.4651 50.8567 165.225 50.84854 166.2579 51.36499 C 167.3469 51.90947 168.4517 53.36023 169.4163 55.51248 C 170.2029 57.26746 170.2306 58.06186 169.5171 58.4006 C 169.1192 58.58955 168.0863 58.59824 167.5164 58.41742 Z" class="color713B28 svgShape"/><path fill="#52cc99" d="M 194.0723 58.25008 C 192.5005 57.89534 192.0561 57.53087 192.208 56.72104 C 192.3031 56.21361 192.5802 56.06383 194.0249 55.73903 C 196.2589 55.23677 196.5763 54.96056 197.9142 52.35469 C 198.9041 50.42662 199.3044 49.90071 199.6805 50.03436 C 200.1129 50.18803 200.283 50.72633 200.2787 51.9272 C 200.2718 53.84232 199.832 55.47191 198.9623 56.80486 C 198.4541 57.58386 198.0726 57.92897 197.3646 58.25031 C 196.7715 58.5195 195.2657 58.51939 194.0723 58.25008 Z" class="color723B28 svgShape"/><path fill="#52cc99" d="M188.5171 58.21675C186.7906 57.93396 184.6705 57.23308 183.1545 56.44389 181.901 55.79137 181.0517 54.68858 180.1177 52.50067 179.3878 50.79096 179.0568 49.42883 179 47.90135 178.9547 46.68333 178.9664 46.5723 179.1842 46.15616 179.3121 45.91174 179.5411 45.62116 179.6929 45.51044 180.1223 45.19736 180.2736 45.42636 180.3768 46.54552 180.5256 48.15935 181.4962 50.57964 182.6505 52.21509 183.3893 53.26183 184.7685 54.33813 187.4917 55.99297 189.7597 57.37122 190.5128 57.95174 190.3039 58.16077 190.1378 58.32703 189.3425 58.35194 188.5171 58.21675zM149.4139 57.91798C148.7554 57.63087 147.9779 56.37511 147.7657 55.25595 147.6451 54.61963 147.7686 53.8416 148.0909 53.20676 148.6965 52.01411 149.114 51.69437 149.9596 51.77567 151.018 51.87743 151.464 52.77255 151.3195 54.50531 151.1696 56.30394 150.729 57.61591 150.1796 57.90022 149.819 58.08678 149.802 58.08717 149.4139 57.91798z" class="color713B28 svgShape"/><path fill="#52cc99" d="M 123.3383 56.85294 C 122.4248 56.62535 121.4626 55.89767 121.2506 55.27417 C 121.0691 54.74014 121.0973 53.19234 121.2971 52.72333 C 121.5029 52.24046 122.3445 51.35881 124.0947 49.79277 C 127.7711 46.50323 129.128 45.66706 130.0489 46.12347 C 130.6259 46.40944 130.6707 46.90547 130.2409 48.25156 C 129.5131 50.53096 126.7597 55.47852 125.8197 56.19586 C 125.0461 56.78629 124.0885 57.03986 123.3383 56.85294 Z" class="colorC65023 svgShape"/><path fill="#52cc99" d="M 175.5549 56.71857 C 174.931 56.4955 174.4737 56.15395 174.221 55.72232 C 173.5014 54.49352 173.3514 51.53696 173.9746 50.8676 C 174.5098 50.29286 176.03 50.84239 177.2509 52.05185 C 178.0354 52.82909 178.7668 54.11685 178.7668 54.72099 C 178.7668 55.20061 178.4529 55.76324 177.9269 56.22655 C 177.2425 56.8293 176.3705 57.01018 175.5549 56.71857 Z" class="color723B28 svgShape"/><path fill="#52cc99" d="M 211.9995 55.74911 C 211.8257 55.71355 211.4603 55.52049 211.1875 55.32013 C 210.5067 54.8201 208.4334 52.65169 208.1129 52.10446 C 207.8819 51.71014 207.8642 51.61761 207.9624 51.31985 C 208.1125 50.8648 208.6923 50.20484 209.2013 49.90971 C 210.5636 49.11974 212.1159 49.48725 213.1037 50.83362 C 213.5791 51.48164 214.2205 52.85193 214.4396 53.68787 C 214.6051 54.31943 214.6043 54.35701 214.4144 54.81396 C 214.2688 55.16464 214.1205 55.33728 213.8403 55.48257 C 213.4068 55.70734 212.4631 55.84398 211.9995 55.74911 Z" class="colorA26E4D svgShape"/><path d="M 188.4178 55.09412 C 187.5474 54.88359 186.3136 54.24982 185.567 53.62971 C 183.5125 51.92323 181.6403 48.28424 181.7939 46.29588 C 181.8897 45.05471 182.2702 44.71451 183.5479 44.72775 C 186.2522 44.75576 189.1482 46.60641 190.4011 49.10716 C 190.9567 50.21611 191.2679 51.77834 191.2667 53.45204 C 191.2659 54.47023 191.1309 54.91748 190.7675 55.1055 C 190.3986 55.29637 189.2307 55.29073 188.4178 55.09412 Z" fill="#52cc99" class="color000 svgShape"/><path fill="#52cc99" d="M 142.8246 53.60335 C 142.3177 53.40984 141.7805 52.99686 141.643 52.69487 C 141.4075 52.17773 142.1643 51.20609 143.4445 50.38194 C 144.121 49.94645 146.7536 48.63513 147.4432 48.39018 L 147.9708 48.20279 L 148.5039 48.48207 C 149.1848 48.8388 149.3406 49.10802 149.1787 49.64871 C 148.8964 50.59132 146.867 52.67235 145.6049 53.31329 C 144.9539 53.64392 144.7591 53.69473 144.0385 53.72174 C 143.4835 53.74255 143.0883 53.70399 142.8246 53.60335 Z" class="colorA26E4D svgShape"/><path fill="#52cc99" d="M 85.75488 53.55916 C 84.69543 53.23792 84.40797 52.34001 84.90941 50.91824 C 85.45433 49.37317 86.30269 48.45025 89.75198 45.65001 C 95.79606 40.74326 98.46193 38.84099 100.7141 37.82788 C 101.8088 37.33543 104.2218 36.48177 104.9369 36.334 C 105.6626 36.18401 105.9156 36.2437 106.4189 36.68365 C 106.8053 37.02147 106.8109 37.03568 106.6643 37.31224 C 106.5116 37.60021 106.1169 37.81999 103.6058 39.01543 C 101.4006 40.06522 99.11823 41.77375 96.75957 44.14038 C 95.04551 45.86024 94.18797 46.94242 93.24167 48.57986 C 91.66051 51.31581 90.86128 52.24984 89.55118 52.89276 C 88.27129 53.52084 86.59751 53.81467 85.75488 53.55916 Z" class="colorEEAF5F svgShape"/><path fill="#52cc99" d="M 168.9509 52.45743 C 168.2377 51.98273 166.8707 50.34534 166.3252 49.3123 C 166.1475 48.97579 166.0663 48.66673 166.0663 48.32646 C 166.0663 47.38724 166.9818 45.14027 167.7704 44.1441 C 168.9042 42.71172 170.3456 43.70644 170.8738 46.28574 C 171.3937 48.82478 171.1291 51.57716 170.2876 52.38382 C 169.8508 52.80255 169.4985 52.82195 168.9509 52.45743 Z" class="color8B4A38 svgShape"/><path fill="#52cc99" d="M 203.667 52.66077 C 202.835 52.40752 202.0419 51.661 201.3598 50.48907 C 201.1079 50.05642 200.7087 49.37014 200.4725 48.96402 C 199.6129 47.4856 198.0335 45.52387 195.2863 42.5225 C 193.1204 40.1563 192.3673 39.05362 192.3673 38.24891 C 192.3673 37.79555 192.5988 37.49122 193.0253 37.38413 C 194.3772 37.04463 198.8208 38.80202 201.2789 40.64832 C 202.9348 41.89207 206.3633 45.36909 207.2705 46.72464 C 208.0162 47.83899 208.0336 48.53197 207.3498 49.88892 C 206.2613 52.0491 204.9356 53.04688 203.667 52.66077 Z" class="colorA26E4D svgShape"/><path fill="#52cc99" d="M192.625 52.32899C192.5443 52.20517 192.3602 51.67611 192.216 51.1533 192.0717 50.63049 191.8849 49.97759 191.8008 49.70243 191.3351 48.17874 189.2072 46.02302 186.1198 43.9474 184.5447 42.88842 184.2008 42.55872 184.3603 42.26044 184.5243 41.95391 184.7897 41.84773 185.3922 41.84773 186.5212 41.84773 188.4043 42.5386 189.4788 43.347 191.6209 44.95869 193.2609 47.69982 193.5206 50.10267 193.619 51.01394 193.2086 52.55414 192.8673 52.55414 192.8148 52.55414 192.7058 52.45282 192.625 52.32899zM173.3168 49.69489C172.9116 49.48347 172.6774 49.26064 172.4839 48.90219 172.1647 48.31129 172.3961 45.67944 172.8483 44.75593 173.1188 44.20347 173.4318 44.03654 174.1972 44.03654 175.49 44.03654 175.6984 44.32161 175.7054 46.09934 175.7092 47.06195 175.6669 47.44034 175.4925 48.00142 175.0095 49.55531 174.2229 50.16759 173.3168 49.69489z" class="color723B28 svgShape"/><path fill="#52cc99" d="M160.596 48.95603C160.1023 48.65483 159.9395 48.24541 159.9818 47.41133 160.0246 46.56747 160.4111 45.67405 160.877 45.34209 161.5013 44.89729 162.5372 45.01002 162.818 45.55331 162.9118 45.73493 162.9662 46.12653 162.9662 46.62062 162.966 48.44067 161.7367 49.65193 160.596 48.95603zM210.9338 48.6599C210.2748 48.32374 209.5096 47.66819 208.1962 46.31445 204.9185 42.93633 203.0514 40.65627 202.3261 39.14612 201.9752 38.41557 201.918 38.20387 201.9203 37.64522 201.9218 37.28751 201.9827 36.8878 202.0556 36.75699 202.1798 36.53437 202.2318 36.52227 202.8681 36.56782 204.7114 36.69978 206.6887 38.37988 209.7885 42.44809 212.0545 45.42192 213.0272 47.38375 212.6672 48.25356 212.4264 48.83522 211.6392 49.01974 210.9338 48.6599z" class="color713B28 svgShape"/><path fill="#52cc99" d="M 194.766 48.01991 C 194.4738 47.87472 194.4026 47.54893 194.5729 47.13742 C 194.9621 46.19738 196.2072 46.42387 196.0239 47.40137 C 195.9239 47.93484 195.2558 48.26335 194.766 48.01991 Z" class="colorA36E02 svgShape"/><path fill="#52cc99" d="M 132.4656 46.07526 C 131.8933 45.555 131.8127 43.94044 132.3101 42.95839 C 132.6759 42.23604 133.6242 41.10307 134.8149 39.96552 C 137.1031 37.77962 138.5164 37.20456 141.6155 37.19823 C 143.1141 37.19517 143.2415 37.20983 143.6246 37.42952 C 144.1378 37.72388 144.366 38.10374 144.3642 38.66125 C 144.3625 39.22209 143.8886 40.58213 143.4961 41.15275 C 142.7991 42.16596 141.1346 43.54875 140.6118 43.54875 C 140.2282 43.54875 139.2345 43.95559 136.5153 45.22604 C 134.0068 46.39806 133.0431 46.60016 132.4656 46.07526 Z" class="colorB54728 svgShape"/><path fill="#52cc99" d="M193.4308 46.14305C193.1278 45.90459 193.1071 45.75651 193.3194 45.34584 193.4883 45.01893 194.1218 44.64941 194.5134 44.64941 194.7948 44.64941 195.1674 44.96478 195.1674 45.20295 195.1674 45.48891 194.8895 46.02335 194.6557 46.18726 194.3303 46.4153 193.7501 46.39436 193.4308 46.14305zM192.6407 44.2655C192.323 44.05587 192.0751 43.75526 192.0704 43.57405 192.0687 43.50542 192.23 43.26903 192.4289 43.04874 192.7272 42.71843 192.8556 42.64821 193.1615 42.64821 193.614 42.64821 193.9499 42.96367 194.0312 43.46489 194.0762 43.74252 194.0346 43.87246 193.8184 44.12963 193.5031 44.50452 193.0774 44.55363 192.6407 44.2655z" class="colorA36E02 svgShape"/><path fill="#52cc99" d="M 121.2985 43.94276 C 120.7866 43.68925 119.9639 42.83475 119.6625 42.24358 C 119.3293 41.59007 119.2921 40.7366 119.5655 40.01227 C 120.0502 38.72758 120.963 37.99417 124.7682 35.83167 C 130.7971 32.40548 131.2721 32.25029 132.3351 33.35913 C 132.786 33.82945 132.9818 34.3681 133.0403 35.299 C 133.1195 36.55988 132.9302 37.06642 132.0843 37.85729 C 131.429 38.46998 125.7576 42.46988 124.322 43.33183 C 122.9555 44.15235 122.0792 44.32941 121.2985 43.94276 Z" class="colorE68E4F svgShape"/><path fill="#52cc99" d="M 171.2809 42.69894 C 169.8329 42.24701 169.6798 40.74583 170.8366 38.34564 C 171.903 36.13333 173.8744 34.94984 176.2989 35.06664 C 177.1962 35.10988 177.3474 35.14774 178.0461 35.50407 C 178.9782 35.97948 179.2668 36.34821 179.2668 37.06364 C 179.2668 37.34888 179.1867 37.71027 179.0748 37.92972 C 178.6214 38.81887 174.5149 42.22745 173.3879 42.65005 C 172.7756 42.87965 171.9231 42.89943 171.2809 42.69894 Z" class="color8B4A38 svgShape"/><path fill="#52cc99" d="M 190.1053 42.25702 C 189.4246 41.84176 189.4684 40.95177 190.208 40.16859 C 190.604 39.74915 190.659 39.72266 191 39.78667 C 191.8602 39.94814 192.2083 40.78608 191.7816 41.66797 C 191.4263 42.40236 190.7392 42.6438 190.1053 42.25702 Z" class="colorA26E4D svgShape"/><path fill="#52cc99" d="M 146.3213 41.95085 C 145.7605 41.84007 145.4656 41.46403 145.4656 40.85972 C 145.4656 39.41108 146.6399 37.80608 148.0995 37.25966 C 150.2184 36.46642 153.5118 37.08585 154.1357 38.39495 C 154.2723 38.68157 154.2802 38.80402 154.1828 39.1291 C 154.1186 39.34369 153.9779 39.63135 153.8702 39.76834 C 153.4169 40.34502 151.3014 41.16689 148.9384 41.68436 C 147.5887 41.97996 146.8496 42.05521 146.3213 41.95085 Z" class="colorB54728 svgShape"/><path fill="#52cc99" d="M 179.5668 41.27686 C 179.1193 41.04726 178.8672 40.54332 178.867 39.87807 C 178.8667 39.18156 178.9793 38.92649 179.5121 38.41563 C 180.5032 37.46552 182.3815 36.64684 184.017 36.45215 C 185.6625 36.25626 188.1436 36.34863 189.5172 36.6569 C 190.4453 36.8652 190.9629 37.35026 190.8286 37.88584 C 190.7191 38.32205 190.4274 38.41696 188.0519 38.78922 C 186.7819 38.98824 185.4285 39.43023 183.8243 40.16986 C 181.271 41.34705 180.2308 41.61751 179.5668 41.27686 Z" class="color723B28 svgShape"/><path fill="#52cc99" d="M 110.8644 38.48518 C 110.1426 38.29166 109.0392 37.63003 108.7031 37.18915 C 108.3339 36.70475 108.334 35.99479 108.7035 35.26525 C 109.5829 33.52883 113.1552 31.36671 117.1075 30.17879 C 118.1952 29.85185 120.014 29.47939 121.2148 29.33768 C 122.3388 29.20502 126.9922 29.16197 127.6285 29.27834 C 129.6719 29.65204 127.5701 31.7632 123.8337 33.09003 C 122.8009 33.45681 119.9838 34.85277 117.5647 36.19656 C 115.0191 37.61058 113.7739 38.20019 112.8148 38.44562 C 111.9016 38.67931 111.6105 38.68521 110.8644 38.48518 Z" class="colorD07842 svgShape"/><path fill="#52cc99" d="M 197.5355 37.75083 C 196.2415 37.46987 194.531 36.90759 193.6094 36.46017 C 192.6323 35.98589 192.2217 35.53786 192.063 34.77287 C 191.9147 34.05819 192.1419 33.54581 192.6673 33.41013 C 193.828 33.11037 197.3553 34.30733 199.2513 35.64439 C 200.157 36.28308 200.3643 36.66065 200.107 37.20313 C 199.7848 37.88242 198.9553 38.0591 197.5355 37.75083 Z" class="color723B28 svgShape"/><path fill="#52cc99" d="M 152.5493 36.3936 C 151.9659 36.2056 151.5658 35.75654 151.5658 35.28963 C 151.5658 34.74252 152.0083 34.33642 153.0875 33.89315 C 153.5981 33.68341 154.5334 33.25071 155.166 32.93158 C 156.5476 32.23451 157.2552 32.04187 158.4345 32.04187 C 159.4966 32.04187 160.263 32.22142 161.2415 32.6994 C 162.1192 33.12813 162.3178 33.41365 162.1405 33.99167 C 161.8491 34.94168 160.4952 35.61951 157.7179 36.20584 C 156.1755 36.53147 153.3012 36.63589 152.5493 36.3936 Z" class="colorC65023 svgShape"/><path fill="#52cc99" d="M 180.9685 35.8495 C 180.5901 35.75208 180.1655 35.33438 180.169 35.0631 C 180.1737 34.70412 180.558 34.06792 181.0113 33.66866 C 181.8897 32.895 182.6994 32.62983 184.7687 32.43819 C 187.3918 32.19525 189.3528 32.452 190.1943 33.14857 C 190.7844 33.63708 190.9041 33.95371 190.83 34.83047 C 190.7953 35.2414 190.7557 35.58807 190.7421 35.60084 C 190.7284 35.61362 189.7272 35.67283 188.5171 35.73242 C 185.2841 35.89165 181.368 35.95238 180.9685 35.8495 Z" class="colorA26E4D svgShape"/><path fill="#52cc99" d="M 139.9154 34.14674 C 138.6751 33.95075 137.5281 33.47552 135.5312 32.33028 C 132.3056 30.48042 131.2719 29.43852 131.9914 28.76223 C 132.5903 28.19923 134.5199 27.70519 136.8131 27.52769 C 138.4534 27.40071 143.3145 27.46519 145.2156 27.63913 C 149.0026 27.98563 151.3707 28.49483 151.5358 28.99814 C 151.612 29.23042 151.1105 29.65886 149.9876 30.32097 C 146.8473 32.17262 145.0421 33.13457 143.9656 33.52998 C 142.5572 34.04727 140.8913 34.30095 139.9154 34.14674 Z" class="colorDB773C svgShape"/></svg></g></svg>